<svg width="20" height="20" viewBox="0 0 20 20" fill="none" xmlns="http://www.w3.org/2000/svg">
<path d="M16.9132 8.16317L10.6632 14.4132C10.5762 14.5006 10.4727 14.5699 10.3587 14.6172C10.2447 14.6646 10.1226 14.6889 9.99918 14.6889C9.8758 14.6889 9.75362 14.6646 9.63967 14.6172C9.52571 14.5699 9.42222 14.5006 9.33512 14.4132L3.08512 8.16317C2.909 7.98705 2.81006 7.74818 2.81006 7.49911C2.81006 7.25004 2.909 7.01117 3.08512 6.83505C3.26124 6.65893 3.50011 6.55999 3.74918 6.55999C3.99826 6.55999 4.23713 6.65893 4.41325 6.83505L9.99997 12.4218L15.5867 6.83427C15.7628 6.65815 16.0017 6.5592 16.2507 6.5592C16.4998 6.5592 16.7387 6.65815 16.9148 6.83427C17.0909 7.01039 17.1899 7.24926 17.1899 7.49833C17.1899 7.7474 17.0909 7.98627 16.9148 8.16239L16.9132 8.16317Z" fill="#94A3B8"/>
</svg>
