<svg width="20" height="20" viewBox="0 0 20 20" fill="none" xmlns="http://www.w3.org/2000/svg">
<path d="M4.44375 2.49455C4.36142 2.40174 4.26149 2.3262 4.14975 2.2723C4.03801 2.2184 3.91669 2.18722 3.7928 2.18055C3.66892 2.17389 3.54495 2.19188 3.42807 2.23348C3.3112 2.27508 3.20374 2.33946 3.11193 2.4229C3.02012 2.50634 2.94578 2.60716 2.89322 2.71954C2.84067 2.83192 2.81094 2.95361 2.80576 3.07756C2.80058 3.20152 2.82005 3.32526 2.86305 3.44163C2.90605 3.558 2.97172 3.66468 3.05625 3.75549L4.30625 5.13439C1.61485 6.92658 0.446877 9.49846 0.390627 9.61955C0.337699 9.73955 0.310364 9.86926 0.310364 10.0004C0.310364 10.1316 0.337699 10.2613 0.390627 10.3813C0.419533 10.4453 1.10391 11.9641 2.61641 13.4758C4.63828 15.4953 7.1875 16.5625 10 16.5625C11.3669 16.5701 12.7215 16.3045 13.9844 15.7813L15.5539 17.5078C15.722 17.6884 15.9545 17.7954 16.201 17.8057C16.4474 17.816 16.688 17.7288 16.8706 17.5628C17.0532 17.3969 17.163 17.1657 17.1762 16.9194C17.1895 16.6731 17.1051 16.4314 16.9414 16.2469L4.44375 2.49455ZM10 14.6875C7.68828 14.6875 5.66641 13.8492 3.99141 12.1969C3.33254 11.5445 2.76561 10.8054 2.30625 10C2.71797 9.27267 3.77422 7.66408 5.5875 6.53986L12.6258 14.2828C11.777 14.5539 10.891 14.6904 10 14.6875ZM19.6094 10.3813C19.5813 10.4445 18.9063 11.9438 17.4219 13.4406C17.3369 13.535 17.2336 13.6111 17.1183 13.6643C17.003 13.7175 16.8781 13.7468 16.7511 13.7503C16.6242 13.7538 16.4979 13.7315 16.3798 13.6847C16.2618 13.6378 16.1545 13.5675 16.0644 13.478C15.9743 13.3885 15.9034 13.2816 15.8559 13.1638C15.8084 13.046 15.7853 12.9198 15.7881 12.7929C15.7908 12.6659 15.8193 12.5408 15.8719 12.4252C15.9244 12.3096 15.9999 12.2059 16.0938 12.1203C16.7173 11.4864 17.2552 10.7735 17.6938 10C17.2347 9.19443 16.6677 8.45531 16.0086 7.80314C14.3328 6.1508 12.3117 5.31252 10 5.31252C9.73828 5.31252 9.47656 5.32346 9.21875 5.34533C9.09451 5.35864 8.96887 5.34698 8.8492 5.31104C8.72953 5.27509 8.61825 5.21559 8.52191 5.13602C8.42557 5.05646 8.3461 4.95844 8.28818 4.84772C8.23027 4.737 8.19507 4.61583 8.18465 4.49131C8.17423 4.3668 8.18882 4.24145 8.22753 4.12265C8.26625 4.00385 8.32833 3.89399 8.41012 3.79953C8.4919 3.70506 8.59175 3.6279 8.70378 3.57257C8.81581 3.51725 8.93778 3.48488 9.0625 3.47736C9.36953 3.4508 9.6875 3.43752 10 3.43752C12.8125 3.43752 15.3617 4.50549 17.382 6.52502C18.8938 8.03674 19.5781 9.55627 19.607 9.61955C19.6603 9.73938 19.6881 9.86901 19.6885 10.0002C19.6889 10.1313 19.6619 10.2611 19.6094 10.3813Z" fill="#CBD5E1"/>
</svg>
